<svg viewBox="0 0 400 300" xmlns="http://www.w3.org/2000/svg"><path d="m191.07 40.93v191.42a6.18 6.18 0 0 1 -6.18 6.17h-105.07a6.17 6.17 0 0 1 -6.17-6.17v-191.42a6.17 6.17 0 0 1 6.17-6.17h105.07a6.18 6.18 0 0 1 6.18 6.17z" fill="#fff"/><path d="m184.89 34.76a6.18 6.18 0 0 1 6.18 6.17v191.42a6.18 6.18 0 0 1 -6.18 6.17h-105.07a6.17 6.17 0 0 1 -6.17-6.17v-191.42a6.17 6.17 0 0 1 6.17-6.17zm0-1h-105.07a7.17 7.17 0 0 0 -7.17 7.17v191.42a7.18 7.18 0 0 0 7.17 7.17h105.07a7.19 7.19 0 0 0 7.18-7.17v-191.42a7.18 7.18 0 0 0 -7.18-7.17z" fill="#231f20"/><path d="m191.06 40.92v71a92.07 92.07 0 0 1 -9.21 6.57l-.26.16c-1.38.86-2.79 1.69-4.22 2.47-1.13.64-2.28 1.24-3.44 1.81h-.05l-.45.23-.48.23c-.76.37-1.52.72-2.29 1.07h-.12l-.33.15-.44.19-.15.07-.17.07-.11.05-.2.08-.2.08c-.09 0-.19.08-.28.12l-.22.09c-.4.18-.79.34-1.19.5l-.94.37-.44.17-.44.17a92.34 92.34 0 0 1 -11.26 3.46l-1.68.38-.5.11c-.49.11-1 .21-1.48.3a93.36 93.36 0 0 1 -18.13 1.77 92.91 92.91 0 0 1 -12.89-.89c-.6-.08-1.2-.16-1.79-.27l-.83-.13-.5-.08-.51-.09h-.08l-1-.19-.56-.11a5.41 5.41 0 0 1 -.58-.12l-.83-.17-.49-.11h-.08c-.15 0-.3-.06-.44-.09h-.15a2.22 2.22 0 0 1 -.37-.09c-.54-.12-1.08-.25-1.61-.4l-.58-.14-.59-.15-.87-.24-.59-.16-.59-.16a91.56 91.56 0 0 1 -14.28-5.43 93 93 0 0 1 -18.53-11.57v-71a6.17 6.17 0 0 1 6.17-6.17h105.07a6.18 6.18 0 0 1 6.18 6.09z" fill="#68e1fd"/><path d="m91.73 43.9h-7a.5.5 0 0 1 -.5-.5.51.51 0 0 1 .5-.5h7a.5.5 0 0 1 .5.5.5.5 0 0 1 -.5.5z" fill="#231f20"/><path d="m91.73 46.67h-7a.5.5 0 0 1 0-1h7a.5.5 0 0 1 0 1z" fill="#231f20"/><path d="m91.73 49.44h-7a.5.5 0 0 1 0-1h7a.5.5 0 1 1 0 1z" fill="#231f20"/><path d="m161.73 152.1h-58.73a4.5 4.5 0 1 1 0-9h58.75a4.5 4.5 0 0 1 0 9z" fill="#d1d3d4"/><path d="m171.58 167.87h-78.46a4.5 4.5 0 0 1 0-9h78.46a4.5 4.5 0 1 1 0 9z" fill="#d1d3d4"/><path d="m166 176.72h-67.27a.5.5 0 0 1 -.5-.5.5.5 0 0 1 .5-.5h67.27a.5.5 0 0 1 .5.5.5.5 0 0 1 -.5.5z" fill="#d1d3d4"/><path d="m166 183.14h-67.27a.5.5 0 0 1 -.5-.5.5.5 0 0 1 .5-.5h67.27a.5.5 0 0 1 .5.5.5.5 0 0 1 -.5.5z" fill="#d1d3d4"/><path d="m159.54 189.55h-54.38a.5.5 0 0 1 -.5-.5.5.5 0 0 1 .5-.5h54.38a.5.5 0 0 1 .5.5.5.5 0 0 1 -.5.5z" fill="#d1d3d4"/><rect fill="#68e1fd" height="14.58" rx="5.95" width="67.24" x="98.73" y="201.45"/><circle cx="127.43" cy="228.06" fill="#231f20" r="2.11"/><path d="m127.43 230.67a2.61 2.61 0 1 1 2.61-2.61 2.61 2.61 0 0 1 -2.61 2.61zm0-4.22a1.61 1.61 0 1 0 1.61 1.61 1.61 1.61 0 0 0 -1.61-1.61z" fill="#231f20"/><path d="m137.27 230.67a2.61 2.61 0 1 1 2.61-2.61 2.61 2.61 0 0 1 -2.61 2.61zm0-4.22a1.61 1.61 0 1 0 1.61 1.61 1.61 1.61 0 0 0 -1.61-1.61z" fill="#d1d3d4"/><path d="m145.12 46.67h-25.53a.5.5 0 0 1 0-1h25.53a.5.5 0 0 1 0 1z" fill="#fff"/><path d="m95.86 70.74s1.44-2.33 3.73-5.52c0 0 6.33 5.35 6.29 5.07s-10.02.45-10.02.45z" fill="#231f20"/><path d="m106 69.77c-.08 0-.23-.16-.43-.29s-.41-.33-.68-.53l-.63-.53c-1.1-.9-2.55-2.08-3.93-3.26l-.4-.33a.5.5 0 0 0 -.41-.11.25.25 0 0 0 -.16 0 .54.54 0 0 0 -.21.16c-1.68 2.35-2.92 4.25-3.44 5.08a0 0 0 0 1 0 0 1.64 1.64 0 0 0 -.17.26s-.07.1-.12.16a1.17 1.17 0 0 0 0 .11.62.62 0 0 0 .07.44.57.57 0 0 0 .42.26h.08.3l3.2-.19h.54a5 5 0 0 1 .54 0c2.57-.16 4.67-.26 5.11-.2a.41.41 0 0 0 .46 0 .53.53 0 0 0 .27-.56c-.02-.24-.04-.37-.41-.47zm-6.22.14h-.55l-2.09.16h-.28c.14-.21.29-.46.48-.73s.31-.47.49-.74l.89-1.32.52-.74c.14-.19.28-.38.41-.58l.2.15 2.73 2.31.63.5.65.54.24.19c-.87 0-2.09.08-3.79.19z" fill="#231f20"/><path d="m168.91 125.28c-.09 0-.19.08-.28.12l-.22.09c-.4.18-.79.34-1.19.5l-.94.37-.44.17-.44.17a92.34 92.34 0 0 1 -11.26 3.46l-1.68.38-.5.11c-.49.11-1 .21-1.48.3a93.36 93.36 0 0 1 -18.13 1.77 92.91 92.91 0 0 1 -12.89-.89c-.6-.08-1.2-.16-1.79-.27l-.83-.13-.5-.08-.51-.09h-.08l-1-.19-.56-.11a5.41 5.41 0 0 1 -.58-.12l-.83-.17-.49-.11h-.08c-.15 0-.3-.06-.44-.09h-.15a2.22 2.22 0 0 1 -.37-.09c-.54-.12-1.08-.25-1.61-.4l-.58-.14-.59-.15-.87-.24-.59-.16-11.48-56.2a3.54 3.54 0 0 1 .11-1.87 5 5 0 0 1 .21-.48.21.21 0 0 1 0-.06l.15-.18a3.17 3.17 0 0 1 1.37-1.1 3.68 3.68 0 0 1 1.47-.32h1.34l3.06-.08h1.68l15.64-.34 17-.35h1.2l3.12-.06 11.54-.25a4.82 4.82 0 0 1 4.62 3.74l.33 1.59z" fill="#231f20"/><path d="m158.94 73.23-.35-1.68a5.35 5.35 0 0 0 -5.17-4.16l-11.66.24-2.89.08h-1.42l-16.68.34-16.44.34h-.82-.84-2.55-1.3a4.35 4.35 0 0 0 -1 .11 3.85 3.85 0 0 0 -.82.5 3.65 3.65 0 0 0 -1.29 1 0 0 0 0 1 0 0 1.64 1.64 0 0 0 -.17.26s-.07.1-.12.16a1.17 1.17 0 0 0 0 .11 3.91 3.91 0 0 0 -.42 2.67l11.42 55.87.59.16.59.16-11.55-56.39a3 3 0 0 1 .15-1.73 2.49 2.49 0 0 1 .33-.57 0 0 0 0 0 0 0 2.1 2.1 0 0 1 .61-.54 3 3 0 0 1 1.67-.5h.36.54.55l3.6-.08h.86.85l47.85-1a1.41 1.41 0 0 1 .29 0 4.27 4.27 0 0 1 3.8 3.3l.3 1.49 10.57 52.23.22-.09c.09 0 .19-.07.28-.12l.2-.08.2-.08.11-.05z" fill="#231f20"/><path d="m173.43 123.23-.48.23c-.76.37-1.52.72-2.29 1.07h-.12l-.33.15-.44.19-.15.07-.17.07-.11.05-.2.08-.2.08c-.09 0-.19.08-.28.12l-.22.09c-.4.18-.79.34-1.19.5l-.94.37-.44.17-.44.17a92.34 92.34 0 0 1 -11.26 3.46l-1.68.38-.5.11c-.49.11-1 .21-1.48.3a93.36 93.36 0 0 1 -18.13 1.77 92.91 92.91 0 0 1 -12.89-.89c-.6-.08-1.2-.16-1.79-.27l-.83-.13-.5-.08-.51-.09h-.08l-1-.19-.56-.11a5.41 5.41 0 0 1 -.58-.12l-.83-.17-.49-.11h-.08l-12.24-59.5-.11-.54-.11-.55-.07-.31-.11-.54-.11-.54-.18-.91a3 3 0 0 1 -.07-1 3.5 3.5 0 0 1 .37-1.3 0 0 0 0 1 0 0 2.39 2.39 0 0 1 .31-.45 3.44 3.44 0 0 1 2.68-1.25l54.6-1.14a4.8 4.8 0 0 1 4.63 3.73z" fill="#fff"/><path d="m162.41 66.06a5.37 5.37 0 0 0 -5.18-4.16l-54.6 1.15a4 4 0 0 0 -3.11 1.45c-.06.08-.11.16-.16.24a3.71 3.71 0 0 0 -.61 2.59 1.85 1.85 0 0 0 .06.39l.17.81.1.53.12.56.06.33.11.54.12.54 12.12 59.37h.15c.14 0 .29.07.44.09h.08l.49.11-12.2-59.6-.11-.55-.12-.54v-.3l-.11-.54-.12-.54-.2-1a2.88 2.88 0 0 1 0-1.34 2.25 2.25 0 0 1 .19-.53 1.93 1.93 0 0 1 .29-.47 3 3 0 0 1 2.3-1l54.57-1.19h.28a4.3 4.3 0 0 1 3.81 3.29l11.57 57.2.48-.23.45-.23h.05z" fill="#231f20"/><path d="m170.51 124.59-.33.15-.44.19-.15.07-.17.07-.11.05-.2.08-.2.08c-.09 0-.19.08-.28.12l-.22.09c-.4.18-.79.34-1.19.5l-.94.37-.44.17-.44.17a92.34 92.34 0 0 1 -11.26 3.46l-1.68.38-.5.11c-.49.11-1 .21-1.48.3a93.36 93.36 0 0 1 -18.13 1.77 92.91 92.91 0 0 1 -12.89-.89c-.6-.08-1.2-.16-1.79-.27l-.83-.13-.5-.08-.51-.09h-.08l-11.55-56.55 53.64-1.45h.55.55 1.16z" fill="#68e1fd"/><path d="m121.05 69a.54.54 0 0 1 0-1.08l16-.38a.54.54 0 0 1 .55.53.54.54 0 0 1 -.53.55l-16 .38z" fill="#e6e7e8"/><path d="m139.24 68.6a.55.55 0 0 1 -.51-.53.54.54 0 0 1 .53-.55h2.11a.54.54 0 0 1 .55.52.54.54 0 0 1 -.52.56h-2.12z" fill="#e6e7e8"/><path d="m121.76 115a.58.58 0 0 1 -.3-.11.55.55 0 0 1 -.09-.76l27.36-35.24a.54.54 0 0 1 .76-.1.55.55 0 0 1 .09.76l-27.36 35.24a.54.54 0 0 1 -.46.21z" fill="#fff"/><path d="m157.26 126.2-3.12 4-1.68.38 4-5a.53.53 0 0 1 .75-.09.54.54 0 0 1 .05.71z" fill="#fff"/><path d="m137.43 126.4a.61.61 0 0 1 -.29-.11.54.54 0 0 1 -.11-.76l6.45-8.45a.54.54 0 1 1 .85.66l-6.44 8.44a.54.54 0 0 1 -.46.22z" fill="#fff"/><path d="m92.13 123.64a93 93 0 0 1 -18.49-11.64v-27.88a9.11 9.11 0 0 1 2.78 3.41c2.39 4.55 2.93 9.71 2.82 14.91.46-4.31 1.5-8.48 4-11.93a3.26 3.26 0 0 1 1.61-1.33c1.83-.52 3.09 1.81 3.46 3.68a44.93 44.93 0 0 1 -2.58 25.67c2.25-4.77 4.76-9.83 9.32-12.48.65-.38 1.51-.7 2.12-.25a2.06 2.06 0 0 1 .61 1.62 24.49 24.49 0 0 1 -5.65 16.22z" fill="#231f20"/><path d="m191.06 90.29v21.71a92.07 92.07 0 0 1 -9.21 6.57l-.26.16c-1.28-1.89-2.5-3.83-3.67-5.78a10.79 10.79 0 0 1 -1.49-3.21 4 4 0 0 1 .63-3.37.82.82 0 0 1 .51-.35 1 1 0 0 1 .79.34 23.17 23.17 0 0 1 4.94 5.87 101.89 101.89 0 0 1 -5.53-11.78 13.82 13.82 0 0 1 -1.17-4.57c0-1.76 1.35-6.15 3.84-4.37a5.24 5.24 0 0 1 1.56 2.32c.65 1.56 1.3 3.13 2 4.68a29.74 29.74 0 0 1 -1.27-16c.32-1.63 1.89-5.87 4.39-4.27a4.44 4.44 0 0 1 1.59 2.76c0 .17.09.33.14.49.74 2.93 1.47 5.87 2.21 8.8z" fill="#231f20"/><rect fill="#fff" height="203.76" rx="6.17" width="117.42" x="208.94" y="61.49"/><path d="m320.19 61.49a6.17 6.17 0 0 1 6.17 6.17v191.42a6.18 6.18 0 0 1 -6.17 6.17h-105.08a6.17 6.17 0 0 1 -6.17-6.17v-191.42a6.17 6.17 0 0 1 6.17-6.17zm0-1h-105.08a7.18 7.18 0 0 0 -7.17 7.17v191.42a7.18 7.18 0 0 0 7.17 7.17h105.08a7.18 7.18 0 0 0 7.17-7.17v-191.42a7.18 7.18 0 0 0 -7.17-7.17z" fill="#231f20"/><path d="m227 70.63h-7a.5.5 0 0 1 -.5-.5.5.5 0 0 1 .5-.5h7a.5.5 0 0 1 .5.5.5.5 0 0 1 -.5.5z" fill="#231f20"/><path d="m227 73.4h-7a.5.5 0 0 1 -.5-.5.5.5 0 0 1 .5-.5h7a.5.5 0 0 1 .5.5.5.5 0 0 1 -.5.5z" fill="#231f20"/><path d="m227 76.17h-7a.5.5 0 0 1 0-1h7a.5.5 0 0 1 0 1z" fill="#231f20"/><rect fill="#68e1fd" height="14.58" rx="5.95" width="67.24" x="234.03" y="228.18"/><g fill="#d1d3d4"><path d="m242.69 112.47h-18.06a4.5 4.5 0 0 1 0-9h18.06a4.5 4.5 0 0 1 0 9z"/><path d="m311.17 114.47h-54.84a3.68 3.68 0 0 1 -3.68-3.67v-5.29a3.68 3.68 0 0 1 3.68-3.68h54.84a3.68 3.68 0 0 1 3.68 3.68v5.29a3.68 3.68 0 0 1 -3.68 3.67zm-54.84-11.64a2.68 2.68 0 0 0 -2.68 2.68v5.29a2.68 2.68 0 0 0 2.68 2.67h54.84a2.68 2.68 0 0 0 2.68-2.67v-5.29a2.68 2.68 0 0 0 -2.68-2.68z"/><path d="m237.06 136.1h-12.43a4.5 4.5 0 0 1 0-9h12.43a4.5 4.5 0 0 1 0 9z"/><path d="m299.91 138.11h-43.58a3.68 3.68 0 0 1 -3.68-3.67v-5.29a3.68 3.68 0 0 1 3.68-3.68h43.58a3.68 3.68 0 0 1 3.67 3.68v5.29a3.68 3.68 0 0 1 -3.67 3.67zm-43.58-11.64a2.68 2.68 0 0 0 -2.68 2.68v5.29a2.68 2.68 0 0 0 2.68 2.67h43.58a2.68 2.68 0 0 0 2.67-2.67v-5.29a2.68 2.68 0 0 0 -2.67-2.68z"/><path d="m235.65 159.74h-11a4.5 4.5 0 0 1 0-9h11a4.5 4.5 0 0 1 0 9z"/><path d="m306.17 161.75h-49.84a3.68 3.68 0 0 1 -3.68-3.68v-5.29a3.68 3.68 0 0 1 3.68-3.67h49.84a3.68 3.68 0 0 1 3.68 3.67v5.29a3.68 3.68 0 0 1 -3.68 3.68zm-49.84-11.64a2.68 2.68 0 0 0 -2.68 2.67v5.29a2.68 2.68 0 0 0 2.68 2.68h49.84a2.68 2.68 0 0 0 2.68-2.68v-5.29a2.68 2.68 0 0 0 -2.68-2.67z"/><path d="m242.69 183.38h-18.06a4.5 4.5 0 0 1 0-9h18.06a4.5 4.5 0 0 1 0 9z"/><path d="m311.17 185.39h-54.84a3.68 3.68 0 0 1 -3.68-3.68v-5.29a3.68 3.68 0 0 1 3.68-3.67h54.84a3.68 3.68 0 0 1 3.68 3.67v5.29a3.68 3.68 0 0 1 -3.68 3.68zm-54.84-11.64a2.68 2.68 0 0 0 -2.68 2.67v5.29a2.68 2.68 0 0 0 2.68 2.68h54.84a2.68 2.68 0 0 0 2.68-2.68v-5.29a2.68 2.68 0 0 0 -2.68-2.67z"/><path d="m237.06 207h-12.43a4.5 4.5 0 0 1 0-9h12.43a4.5 4.5 0 0 1 0 9z"/><path d="m291.89 209h-35.56a3.67 3.67 0 0 1 -3.68-3.67v-5.29a3.67 3.67 0 0 1 3.68-3.67h35.56a3.67 3.67 0 0 1 3.67 3.67v5.29a3.67 3.67 0 0 1 -3.67 3.67zm-35.56-11.63a2.68 2.68 0 0 0 -2.68 2.67v5.29a2.68 2.68 0 0 0 2.68 2.67h35.56a2.67 2.67 0 0 0 2.67-2.67v-5.29a2.67 2.67 0 0 0 -2.67-2.67z"/></g><circle cx="272.57" cy="254.79" fill="#231f20" r="2.11"/><path d="m272.57 257.4a2.61 2.61 0 1 1 2.61-2.61 2.61 2.61 0 0 1 -2.61 2.61zm0-4.22a1.61 1.61 0 1 0 1.61 1.61 1.61 1.61 0 0 0 -1.61-1.61z" fill="#231f20"/><path d="m262.73 257.4a2.61 2.61 0 1 1 2.61-2.61 2.61 2.61 0 0 1 -2.61 2.61zm0-4.22a1.61 1.61 0 1 0 1.61 1.61 1.61 1.61 0 0 0 -1.61-1.61z" fill="#d1d3d4"/><path d="m280.41 73.4h-25.53a.5.5 0 0 1 -.5-.5.51.51 0 0 1 .5-.5h25.53a.5.5 0 0 1 .5.5.5.5 0 0 1 -.5.5z" fill="#231f20"/></svg>