<svg viewBox="0 0 400 300" xmlns="http://www.w3.org/2000/svg"><path d="m102.92 45.46h196.03v127.37h-196.03z" fill="#24285b"/><path d="m186.13 158.28-7.45 47.3h49.66l-11.42-47.3z" fill="#c9c9c9"/><ellipse cx="203.5" cy="234.47" fill="#e6e6e6" opacity=".24" rx="155.16" ry="30.56"/><path d="m167.35 197.29h69.84v15.2h-69.84z" fill="#e6e6e6"/><circle cx="118.86" cy="58.16" fill="#fff" r="3.43"/><circle cx="129.07" cy="58.16" fill="#68e1fd" r="3.43"/><circle cx="138.68" cy="58.16" fill="#ffd200" r="3.43"/><path d="m102.92 148.24h196.03v24.59h-196.03z" fill="#e6e6e6"/><circle cx="203.06" cy="160.54" fill="#a5a5a5" r="6.7"/><path d="m174.52 117.35h57.08v4.16h-57.08z" fill="#68e1fd"/><path d="m199.95 128.29h57.08v4.16h-57.08z" fill="#ffd200"/><path d="m160.78 107.28h47.9v4.16h-47.9z" fill="#68e1fd"/><path d="m218.64 107.28h47.9v4.16h-47.9z" fill="#68e1fd"/><path d="m174.52 95.67h42.83v4.16h-42.83z" fill="#ffd200"/><path d="m228.49 95.67h42.83v4.16h-42.83z" fill="#ffd200"/><g fill="#fff"><path d="m143.01 117.35h21.47v4.16h-21.47z"/><path d="m164.39 128.29h21.47v4.16h-21.47z"/><path d="m129.27 107.28h21.47v4.16h-21.47z"/><path d="m129.27 75.59h21.47v4.16h-21.47z"/><path d="m143.01 86.01h21.47v4.16h-21.47z"/></g><path d="m174.52 86.01h42.83v4.16h-42.83z" fill="#ffd200"/><path d="m228.49 86.01h42.83v4.16h-42.83z" fill="#ffd200"/><path d="m143.01 95.67h21.47v4.16h-21.47z" fill="#fff"/><path d="m159.32 75.59h44.22v4.16h-44.22z" fill="#68e1fd"/><path d="m212.79 75.59h31.4v4.16h-31.4z" fill="#68e1fd"/><path d="m257.63 18.85h74.49v51.21h-74.49z" fill="#ffd200"/><path d="m284.87 54.51a1.72 1.72 0 0 1 -1.07-.37l-11.17-8.83a1.74 1.74 0 0 1 0-2.7l11.17-9a1.72 1.72 0 0 1 2.2 2.7l-9.48 7.63 9.47 7.49a1.73 1.73 0 0 1 -1.07 3.08z" fill="#fff"/><path d="m305.09 54.51a1.72 1.72 0 0 1 -1.09-3.08l9.47-7.49-9.47-7.63a1.72 1.72 0 1 1 2.17-2.68l11.16 9a1.74 1.74 0 0 1 .67 1.37 1.77 1.77 0 0 1 -.66 1.35l-11.17 8.83a1.69 1.69 0 0 1 -1.08.33z" fill="#fff"/><path d="m290.29 54.51a1.63 1.63 0 0 1 -.71-.16 1.71 1.71 0 0 1 -.85-2.28l8.13-17.82a1.73 1.73 0 1 1 3.14 1.44l-8.14 17.81a1.73 1.73 0 0 1 -1.57 1.01z" fill="#fff"/><path d="m267.88 225.21h-61.82-6.51-61.82l-15.1 39.83h76.92 6.51 76.91z" fill="#e6e6e6"/><path d="m230.53 231.84h-32.67-4.94-49.88l-8.51 26.56h58.39 4.94 42.24z" fill="#c9c9c9"/><path d="m237.19 231.84 10.36 26.56h25.53l-10.89-26.56z" fill="#c9c9c9" opacity=".42"/><path d="m122.63 265.04 5.52 7.4h148.34l6.48-7.4z" fill="#c9c9c9"/><path d="m76.19 213.1s-14.78-4-18-17.8c0 0 22.91-4.63 23.56 19z" fill="#68e1fd" opacity=".58"/><path d="m78 211.63s-10.32-16.33-1.23-31.63c0 0 17.42 11.07 9.68 31.64z" fill="#68e1fd" opacity=".73"/><path d="m80.67 211.65s5.46-17.25 22-20.52c0 0 3.09 11.2-10.69 20.56z" fill="#68e1fd"/><path d="m69.95 211.26 2.99 20.5 18.88.08 2.78-20.48z" fill="#24285b"/></svg>