<svg viewBox="0 0 400 300" xmlns="http://www.w3.org/2000/svg" xmlns:xlink="http://www.w3.org/1999/xlink"><linearGradient id="a" gradientUnits="userSpaceOnUse" x1="283.5" x2="300.16" y1="234.25" y2="210.55"><stop offset="0" stop-color="#fff" stop-opacity="0"/><stop offset="1" stop-color="#d43500"/></linearGradient><path d="m203.45 291.79 147.5-87.17c4.7-2.64 8.72-7 4.15-9.8l-148-85.31c-2.22-1.38-5.59-2.28-7.85-1l-154.87 89.89c-4.7 2.73-5.54 10.34-.84 13.07l140.46 80.18a19.61 19.61 0 0 0 19.45.14z" fill="#ff666d"/><path d="m182.56 156.18 21.44 10.32a4.93 4.93 0 0 1 .35 8.7l-50.79 29.63a4.93 4.93 0 0 1 -6.63-1.59l-12.36-19.24" fill="#56403d"/><path d="m66 106.56 170.88-98.46a7.71 7.71 0 0 1 11.56 6.68v102.42a6.41 6.41 0 0 1 -3.2 5.55l-182.17 105.15a4.14 4.14 0 0 1 -6.2-3.58v-102a18.2 18.2 0 0 1 9.13-15.76z" fill="#68e1fd"/><path d="m236.86 15.84-165.69 95.34a11.62 11.62 0 0 0 -5.82 10.07v76.75a4.2 4.2 0 0 0 6.28 3.64l169-97a4.14 4.14 0 0 0 2.08-3.59v-81.83a3.89 3.89 0 0 0 -5.85-3.38z" fill="#fff"/><ellipse cx="167.92" cy="156.6" fill="#ab643c" rx="4.12" ry="3.6" transform="matrix(.18909544 -.98195871 .98195871 .18909544 -17.62 291.87)"/><path d="m174.49 142.64a51.14 51.14 0 0 1 19.22-26.16c10.87-7.42 22.61-6.86 25.1-16.32 2.82-10.75 10.78-25.41 23.89-29.06v29.23a6.26 6.26 0 0 1 -3.17 5.45z" fill="#3d44ae"/><path d="m65.34 150s20.07-8.59 23.75-24.1c2.34-9.84 7.13-21.46 17-25.95 3-1.38 6.22-2.08 8.85-4.22a37.89 37.89 0 0 0 6.23-6.89 71.06 71.06 0 0 0 6.24-10l-59.23 34a5.57 5.57 0 0 0 -2.8 4.83z" fill="#3f46ae"/><path d="m242.91 68.23c0-.26 0-.52 0-.79-8.69.9-13.48 8.82-16.84 16.31-4.69 10.47-10.43 21.31-22.13 25-5 1.59-10.06 2.06-14.48 5.14a33 33 0 0 0 -8.47 9.17c-4.93 7.51-7.79 16.46-13.36 23.45l.88-.32a22.26 22.26 0 0 1 2-1c.24-.11.47-.19.7-.27a124.13 124.13 0 0 0 7.35-13.47c2.35-4.66 5-9.38 8.71-13.09 5-4.93 10.82-5.71 17.2-7.66 8.06-2.46 13.94-8.52 18.2-15.59 5.27-8.75 8.28-24.34 20.24-25.66z" fill="#ffb3a6"/><path d="m138.38 72.31a11.72 11.72 0 0 1 -2.24 1.33 35.92 35.92 0 0 1 -15.56 19.13c-7.54 4.43-16.64 6.1-23.36 11.94-7.22 6.29-9.74 16.93-13.78 25.29-4.28 8.85-9.81 17.15-18.32 22.18a21.73 21.73 0 0 1 .19 2.21c7.85-4.33 13.49-11.4 17.75-19.25 5.38-9.91 8-23.9 17.68-30.62 7.69-5.32 17.29-6.91 24.75-12.67a38.22 38.22 0 0 0 13.28-19.85z" fill="#ffb3a6"/><path d="m84.38 179.35v.25a4.36 4.36 0 0 0 6.48 3.81l34.27-19.05a4.36 4.36 0 0 0 2.24-3.81 4.36 4.36 0 0 0 -6.46-3.82l-34.27 18.8a4.36 4.36 0 0 0 -2.26 3.82z" fill="#ffb3a6"/><path d="m131.64 124.83-47.82 27.23a1.13 1.13 0 0 0 1.18 1.94l47.82-27.23a1.13 1.13 0 0 0 -1.14-1.94z" fill="#b3b3b3"/><path d="m131.64 131.89-47.82 27.24a1.13 1.13 0 0 0 1.18 1.94l47.82-27.23a1.13 1.13 0 0 0 -1.14-1.94z" fill="#b3b3b3"/><path d="m131.64 139.08-47.82 27.24a1.13 1.13 0 0 0 1.18 1.94l47.77-27.26a1.13 1.13 0 0 0 -1.14-1.94z" fill="#b3b3b3"/><ellipse cx="197.65" cy="78.11" fill="none" rx="17.95" ry="11.53" stroke="#a2c609" stroke-miterlimit="10" stroke-width="2" transform="matrix(.44354053 -.89625432 .89625432 .44354053 39.98 220.61)"/><ellipse cx="174.15" cy="93.25" fill="#c5e0fe" rx="20.19" ry="14.48" transform="matrix(.44354053 -.89625432 .89625432 .44354053 13.33 207.97)"/><path d="m174.15 93.25 10-17.51s-6.63-5.23-16.59 2.76z" fill="#f9aa43"/><path d="m174.15 93.25-13.67-4.92s1.58-4.68 7.06-9.83z" fill="#768cfb"/><path d="m146.12 78.88 11.64-7.08c1.65-1 .14-3.6-1.51-2.59l-11.65 7.08c-1.65 1-.14 3.6 1.51 2.59z" fill="#e6e6e6"/><path d="m192.58 51.47 11.64-7.08c1.65-1 .14-3.6-1.51-2.59l-11.64 7.08c-1.65 1-.14 3.6 1.51 2.59z" fill="#e6e6e6"/><path d="m218 38.29 11.64-7.08c1.65-1 .14-3.6-1.51-2.59l-11.65 7.08c-1.65 1-.14 3.6 1.51 2.59z" fill="#e6e6e6"/><path d="m168.07 65.91 11.64-7.08c1.65-1 .14-3.6-1.51-2.59l-11.64 7.08c-1.65 1-.14 3.6 1.51 2.59z" fill="#e6e6e6"/><path d="m193.92 279.3v-23.68l21.19-11.84v23.49z" fill="#b24f28"/><path d="m193.92 255.62-20.62-11.84s-.57 23.87 0 24.25 20.62 11.27 20.62 11.27z" fill="#c96336"/><path d="m173.29 243.78 20.63-12.6 21.19 12.6-21.19 11.84z" fill="#db7d58"/><path d="m181.15 238.99 21.47 11.77v12.36l6.17-3.12v-12.69l-21.47-12.1z" fill="#fdedcb"/><path d="m239.08 108.11s2.9-.51 3.6-1.46 0-1.48 0-1.48 2.85-1.35 2.42-2.29-2.83-3.26-4.37-3.26-6.52 5.06-6.52 5.06" fill="#eead97"/><path d="m235.5 236.83a1.1 1.1 0 0 1 -1.12 1c-1 .08-10.62-4.05-13 1.55a1.59 1.59 0 0 0 .63 1.94 38 38 0 0 0 15.8 5.74 8.89 8.89 0 0 0 5.69-.72l-.45-10.56z" fill="#c24327"/><path d="m258.72 231.94s-9-5.86-10.55-2.14c-1.21 2.87 9.53 11.22 13.48 11.88s4.49-3.49 4.49-3.49l-.13-6.81" fill="#c24327"/><path d="m241.13 146.65s-9 19.38-8.84 89.38c0 0 1.83 4.84 14.83 1.51l5.28-62.54 2.28 57.68s6.11 4.53 15.6-.91c0 0-2.13-77.17-7.32-91" fill="#333856"/><path d="m263.39 143.11c2.25-9.53 6.89-34.14 1.92-37.89-4.33-3.27-14.42.28-22.13 5.49-6.32 4.27-3.74 29.14-2.65 37.77 8.38 1.03 16.19-.43 22.86-5.37z" fill="#c24327"/><path d="m265.15 105.17s3.16 1.56 4.39 7 3.3 19.28.05 23-8.82-2-9.23-2.39" fill="#c24327"/><path d="m246.88 108.54s-11.69 6.08-12.07 6.21 5.51-4.51 5.51-4.51-.67-8.21-6.77-6.28c0 0-19.65 15.09-8.71 24.56 5.23 4.52 22-2.67 22-2.67" fill="#c24327"/><path d="m244.48 91.31s-.22 12.65 3.31 13a6.5 6.5 0 0 0 6.91-3.6" fill="#eead97"/><path d="m249.59 102.69v6s3.23 1.24 7.75-1.77v-4.92" fill="#eead97"/><path d="m245.12 93.65s-4.3-4.47-1.49-8.28 6-1.82 6-1.82.66-1.66 4-2 4.63 3 6 3.81 3.48 3.26 3.64 5.27-2.81 13.26-6.29 14.09-8.05 2.17-11.86-11.07z" fill="#c24327"/><path d="m278.28 210a81.4 81.4 0 0 1 8.14 4.7c4.15 2.76 10.34 4.92 14.17 8.1l29.82-17.15-40.24-6.49-15.17 8.93q1.68.91 3.28 1.91z" fill="url(#a)" opacity=".32"/><g fill="#68e1fd"><path d="m309 218.43v-24.27l-21.72-12.16v24.1z"/><path d="m309 194.16 21.15-12.16s.59 24.47 0 24.86-21.15 11.57-21.15 11.57z"/><path d="m330.15 182.02-21.14-12.92-21.73 12.92 21.73 12.14z"/><path d="m287.28 182.02-7.86-13.63 22.27-13.09 7.32 13.8z"/></g><path d="m309 194.16 21.15-12.16s.59 24.47 0 24.86-21.15 11.57-21.15 11.57z" fill="#606060" opacity=".49"/><path d="m330.41 181.59-21.14-12.92-21.73 12.92 21.73 12.14z" fill="#606060" opacity=".8"/><path d="m330.15 182.02 5.74-12.25-23.39 12.74-3.49 11.65z" fill="#68e1fd"/></svg>